<?xml version="1.0" standalone="no"?>
<!DOCTYPE svg PUBLIC "-//W3C//DTD SVG 20010904//EN"
 "http://www.w3.org/TR/2001/REC-SVG-20010904/DTD/svg10.dtd">
<svg version="1.0" xmlns="http://www.w3.org/2000/svg"
 width="400.000000pt" height="428.000000pt" viewBox="0 0 400.000000 428.000000"
 preserveAspectRatio="xMidYMid meet">

<g transform="translate(0.000000,428.000000) scale(0.100000,-0.100000)"
fill="#000000" stroke="none">
<path d="M1260 4242 c0 -38 -11 -40 -52 -11 -25 18 -32 19 -39 8 -5 -8 -9 -22
-9 -31 0 -23 -8 -22 -45 2 -43 28 -53 25 -66 -20 -12 -39 -13 -40 -35 -25 -34
22 -42 19 -50 -20 -7 -39 -6 -39 -51 -26 l-32 9 -21 -71 c-50 -164 -124 -274
-295 -442 -226 -221 -356 -387 -451 -577 -66 -130 -92 -220 -106 -355 -20
-209 22 -405 122 -557 59 -90 167 -192 262 -247 40 -24 74 -44 76 -45 2 -1
-13 -19 -33 -40 -82 -89 -166 -247 -205 -384 -111 -398 -31 -794 213 -1047
l41 -43 -41 -40 c-46 -44 -61 -76 -43 -94 6 -6 39 -11 77 -10 52 1 70 -3 85
-18 21 -21 31 -21 112 -8 50 8 61 7 71 -7 10 -13 25 -15 84 -11 83 6 159 40
258 113 l63 47 47 -39 c76 -63 138 -102 228 -144 53 -25 86 -47 90 -59 10 -31
44 -44 123 -44 50 -1 75 3 81 12 6 11 16 11 47 3 69 -19 82 -15 94 28 l10 40
54 -6 c36 -4 56 -2 61 6 9 15 -11 253 -31 375 -8 49 -26 123 -39 164 -14 46
-20 79 -15 82 6 3 41 14 80 24 l70 18 71 -66 c39 -37 99 -88 132 -113 74 -55
261 -147 331 -164 28 -6 83 -29 122 -50 78 -43 116 -49 136 -20 12 17 19 18
68 9 75 -13 110 1 110 42 0 30 0 30 54 27 30 -1 58 1 62 6 16 15 16 127 0 204
-43 215 -150 430 -305 618 -27 32 -47 64 -45 70 3 6 68 24 146 39 314 62 559
152 787 289 77 46 90 50 138 48 99 -5 114 14 62 74 l-31 35 34 0 c38 0 78 24
78 46 0 8 -21 38 -47 66 -27 28 -43 53 -38 55 23 8 75 43 75 51 0 26 -184 149
-284 191 -138 57 -373 115 -583 142 l-92 12 -22 56 c-34 87 -114 239 -165 316
l-47 70 -2 150 c-1 127 -5 160 -24 215 -120 340 -388 586 -746 683 -50 14
-139 36 -200 51 -194 45 -352 139 -493 292 -71 77 -72 77 -72 46z m-35 -38
c14 -9 42 -48 62 -88 26 -49 64 -98 123 -157 93 -94 158 -141 295 -214 172
-92 255 -163 335 -286 21 -33 46 -82 55 -110 l17 -49 -54 -50 -53 -49 -102 -1
c-281 -1 -595 -96 -811 -246 l-62 -43 -78 9 c-42 5 -120 11 -172 13 -93 4 -95
5 -109 33 -9 18 -14 57 -13 104 1 98 33 200 127 400 123 260 165 393 184 584
5 54 12 101 16 104 3 3 19 -4 35 -16 38 -29 40 -28 40 11 0 57 13 65 61 38 42
-24 58 -19 59 17 0 16 16 15 45 -4z m281 -183 c94 -61 197 -105 312 -133 306
-73 377 -102 502 -206 138 -114 224 -209 248 -274 17 -47 39 -179 28 -167 -2
2 -27 38 -54 79 -27 41 -67 92 -90 113 -71 63 -119 49 -244 -69 -31 -30 -61
-54 -66 -54 -5 0 -20 24 -32 53 -70 163 -196 290 -376 380 -118 59 -246 152
-325 234 -77 81 -141 188 -132 221 4 16 17 7 78 -53 40 -40 108 -96 151 -124z
m-579 79 l29 -11 -8 -77 c-16 -151 -68 -307 -186 -558 -116 -246 -146 -364
-120 -466 l15 -57 -28 -6 c-78 -17 -109 -78 -116 -226 l-6 -107 -26 8 c-98 28
-186 106 -236 211 -41 86 -51 155 -36 253 24 164 70 234 336 506 99 102 198
211 219 243 47 72 101 187 117 250 6 26 12 47 14 47 1 0 15 -5 32 -10z m1525
-697 c25 -27 64 -77 87 -111 40 -64 113 -237 126 -302 l7 -35 -34 33 c-63 60
-50 32 24 -49 232 -256 382 -574 428 -907 10 -76 9 -89 -10 -146 -43 -129
-211 -347 -381 -494 -245 -212 -464 -306 -851 -367 -128 -20 -376 -20 -491 1
-99 17 -246 63 -322 101 -294 148 -425 424 -425 897 0 134 -4 185 -25 284 -57
284 -67 455 -29 534 21 44 44 58 113 68 68 9 320 -7 338 -21 9 -8 22 -3 50 18
146 112 345 199 559 245 93 20 137 23 307 23 131 0 193 3 183 10 -13 8 -9 16
21 55 54 68 133 149 177 181 59 43 92 39 148 -18z m697 -1074 l68 -11 22 -76
c51 -174 128 -292 192 -292 96 0 229 133 229 229 l0 30 56 -25 c31 -14 78 -39
104 -56 l47 -31 -21 -38 -21 -38 23 -31 c23 -30 23 -32 7 -50 -11 -12 -20 -45
-24 -82 -4 -35 -14 -74 -24 -88 -9 -13 -17 -32 -17 -41 0 -20 -133 -103 -252
-158 -185 -86 -368 -144 -599 -191 -75 -15 -143 -31 -151 -36 -9 -5 -35 -34
-59 -64 -200 -253 -470 -440 -759 -523 l-85 -25 -33 62 c-18 33 -52 88 -77
121 -25 33 -45 63 -45 67 0 5 17 8 38 8 101 0 427 76 556 130 261 109 553 367
704 623 27 45 59 109 71 142 21 56 22 66 11 140 -6 44 -24 131 -41 194 -16 63
-29 116 -29 117 0 7 41 4 109 -7z m207 -39 c143 -29 246 -60 267 -78 12 -10
17 -27 15 -46 -4 -36 15 -36 -205 0 l-161 28 -16 49 c-18 57 -19 67 -7 67 5 0
53 -9 107 -20z m577 -235 c20 -14 37 -29 37 -33 0 -5 -20 -18 -45 -30 l-44
-21 -16 22 c-18 26 -19 41 -3 67 17 26 26 25 71 -5z m38 -191 c17 -33 2 -44
-68 -44 l-53 0 0 39 c0 24 8 48 21 65 l22 27 32 -31 c18 -17 38 -43 46 -56z
m-3425 -66 l51 -23 12 -74 c30 -177 111 -342 220 -452 164 -164 463 -269 766
-269 l93 0 41 -52 c129 -161 206 -376 225 -626 6 -80 6 -83 -13 -72 -31 16
-48 12 -86 -21 -27 -24 -41 -30 -60 -25 -28 7 -83 -13 -104 -38 -10 -12 -23
-15 -47 -10 -25 4 -45 -1 -82 -21 l-49 -27 -75 35 c-79 36 -175 97 -234 149
l-34 30 38 25 c73 48 128 155 158 308 l17 85 -22 24 c-13 14 -46 34 -74 46
-44 19 -63 22 -127 17 -144 -11 -167 -28 -206 -146 l-22 -66 -66 134 c-60 124
-128 312 -157 436 -12 51 -24 73 -35 63 -6 -7 33 -157 66 -252 11 -33 19 -61
17 -63 -10 -9 -130 124 -171 190 -27 42 -52 74 -57 71 -29 -17 145 -246 216
-284 20 -11 42 -47 85 -137 70 -147 165 -295 245 -381 l59 -63 -30 -24 c-16
-13 -53 -38 -82 -56 l-53 -32 -51 24 c-30 14 -70 24 -97 24 -25 0 -60 8 -78
18 -37 20 -81 22 -117 6 -22 -10 -30 -8 -63 17 -95 71 -253 262 -225 272 6 2
46 24 88 50 67 40 82 55 106 101 22 42 28 67 28 118 0 56 -3 67 -26 88 -39 36
-85 47 -216 52 l-118 5 0 82 c0 233 68 476 180 643 33 48 99 123 110 123 3 0
28 -10 56 -22z m3351 -40 c18 -18 33 -36 33 -40 0 -5 -26 -8 -57 -6 -55 3 -58
4 -55 27 3 28 19 51 35 51 6 0 26 -14 44 -32z m-1076 -529 l42 -50 -22 -39
c-33 -60 -53 -134 -42 -162 21 -54 91 -93 186 -104 56 -7 57 -8 76 -51 31 -72
64 -216 60 -260 -2 -19 -112 -66 -150 -64 -38 2 -82 -13 -121 -41 -21 -15 -30
-16 -62 -6 -33 10 -43 8 -87 -14 l-50 -24 -78 23 c-151 45 -275 119 -425 254
-67 59 -81 79 -55 79 7 0 62 24 122 54 180 88 348 221 480 377 37 44 71 79 75
79 4 0 27 -23 51 -51z m309 -743 c0 -50 -22 -63 -73 -45 -22 8 -42 19 -44 24
-4 14 66 54 95 55 18 0 22 -5 22 -34z m-142 -18 c7 -7 12 -31 12 -54 0 -53
-17 -60 -95 -44 -50 10 -55 14 -55 38 0 47 106 92 138 60z m-1868 -42 c14 -3
40 -21 59 -40 l33 -34 -27 -18 -28 -18 -48 54 c-52 59 -59 74 -31 67 9 -3 28
-8 42 -11z m1697 -8 c7 -6 13 -26 13 -44 0 -30 -3 -34 -26 -34 -33 0 -126 50
-121 64 10 30 103 40 134 14z m-2267 -149 c31 -25 37 -35 30 -49 -16 -29 -170
-38 -170 -9 0 13 78 89 91 89 5 0 28 -14 49 -31z m188 -29 c27 -17 31 -23 23
-39 -10 -19 -31 -25 -127 -37 -32 -4 -54 -2 -58 4 -3 6 11 29 32 51 45 47 78
53 130 21z m167 -39 l40 -19 -37 -16 c-39 -17 -148 -22 -148 -7 0 4 9 20 21
35 25 32 66 34 124 7z m1042 -3 c16 -15 23 -33 23 -60 0 -36 -1 -38 -32 -38
-54 0 -76 10 -89 41 -10 27 -9 32 11 54 29 31 57 32 87 3z m-130 -36 c20 -13
35 -65 28 -99 -5 -27 -11 -33 -31 -33 -64 0 -139 64 -117 99 21 33 90 52 120
33z m-143 -63 c20 -15 26 -29 24 -48 -3 -24 -7 -26 -58 -29 -99 -4 -142 41
-73 77 49 26 74 26 107 0z"/>
<path d="M1453 2859 c-46 -13 -66 -49 -66 -117 0 -99 66 -208 140 -233 43 -14
152 -7 238 16 44 11 68 24 88 48 42 48 89 150 85 183 -3 26 -11 32 -89 61 -47
18 -115 37 -150 42 -77 13 -202 13 -246 0z"/>
<path d="M2341 2641 c-16 -29 -51 -163 -51 -194 0 -45 17 -22 24 34 4 28 17
79 30 115 22 59 20 88 -3 45z"/>
<path d="M2540 2647 c-109 -55 -201 -434 -156 -642 17 -81 41 -125 67 -125 30
0 189 55 251 86 29 15 84 47 122 71 l69 44 -7 53 c-9 81 -52 222 -96 313 -44
94 -107 168 -165 194 -48 22 -53 22 -85 6z m119 -45 c80 -64 150 -204 196
-394 14 -57 25 -106 25 -111 0 -9 -134 -97 -148 -97 -5 0 -12 53 -15 118 -10
192 -71 348 -167 420 -25 19 -46 38 -48 43 -2 5 8 20 23 35 22 22 32 25 62 21
20 -4 53 -19 72 -35z m-146 -262 c50 -59 60 -189 15 -198 -29 -6 -71 71 -76
139 -7 95 14 115 61 59z"/>
<path d="M2043 2425 c-19 -41 -33 -82 -29 -90 8 -22 50 -35 83 -26 27 7 28 10
28 67 0 59 -19 124 -37 124 -5 0 -25 -34 -45 -75z"/>
<path d="M1554 2294 c-8 -20 -18 -57 -21 -83 -5 -44 -3 -49 26 -74 43 -36 133
-64 168 -51 24 8 73 65 73 84 0 4 -16 28 -36 53 -47 61 -117 107 -161 107 -30
0 -36 -5 -49 -36z"/>
<path d="M1190 2313 c0 -5 20 -16 44 -26 42 -17 99 -70 138 -127 9 -14 17 -20
17 -14 1 6 -12 30 -28 54 -40 60 -171 146 -171 113z"/>
<path d="M964 2242 c-82 -75 -135 -216 -137 -362 -2 -127 20 -197 83 -262 l46
-48 146 0 c154 0 267 20 332 58 28 17 31 23 31 68 -1 161 -290 530 -446 569
-18 4 -32 -2 -55 -23z m360 -276 c30 -44 65 -105 80 -133 34 -68 59 -164 46
-177 -5 -5 -40 -20 -77 -32 l-68 -23 -17 117 c-16 117 -51 269 -68 300 -17 32
-50 115 -50 126 1 19 99 -93 154 -178z m-276 71 c45 -48 71 -174 40 -205 -43
-43 -124 141 -89 206 15 28 22 27 49 -1z"/>
<path d="M2845 1869 c-38 -27 -151 -90 -250 -141 -212 -108 -337 -179 -458
-260 l-87 -59 -168 11 c-193 12 -388 2 -534 -29 -169 -35 -309 -37 -391 -5 -9
3 -17 1 -17 -5 0 -5 19 -16 43 -22 24 -7 61 -30 87 -54 110 -104 221 -167 367
-211 77 -23 106 -27 238 -27 226 -2 412 42 618 144 140 70 209 119 312 223
103 103 170 204 222 333 23 59 45 97 66 115 54 45 25 38 -48 -13z m-162 -136
c-2 -10 -10 -26 -18 -36 -11 -16 -16 -16 -34 -5 -28 17 -27 22 12 41 42 21 46
21 40 0z m27 -139 c0 -25 -104 -142 -190 -214 -281 -236 -747 -351 -1079 -265
-68 17 -154 54 -186 78 -20 15 -20 15 5 20 14 3 84 19 155 36 144 33 187 38
418 46 236 9 297 24 476 123 58 32 153 79 211 105 188 83 190 84 190 71z
m-1420 -250 c0 -8 -5 -24 -11 -35 -10 -19 -11 -19 -39 3 -37 30 -37 36 3 41
17 2 35 5 40 5 4 1 7 -5 7 -14z"/>
<path d="M2186 1614 c-11 -7 -16 -17 -13 -21 4 -4 15 1 24 10 22 21 14 30 -11
11z"/>
<path d="M1914 1535 c21 -16 32 -13 21 4 -3 6 -14 11 -23 11 -15 -1 -15 -2 2
-15z"/>
<path d="M1602 640 c-22 -17 -55 -50 -72 -73 l-30 -41 36 -19 c75 -39 134 -14
134 57 0 44 -11 106 -19 106 -4 0 -26 -14 -49 -30z"/>
</g>
</svg>
